<svg width="123" height="24" viewBox="0 0 123 24" fill="none" xmlns="http://www.w3.org/2000/svg">
<path d="M33.8106 15.9362C32.9491 15.4576 32.2552 14.7876 31.7527 13.9262C31.2502 13.0648 30.987 12.1077 30.987 11.007C30.987 9.93021 31.2502 8.97308 31.7527 8.11167C32.2552 7.25025 32.9491 6.58026 33.8106 6.1017C34.672 5.62313 35.6291 5.38385 36.658 5.38385C37.7109 5.38385 38.6441 5.62313 39.5055 6.1017C40.3669 6.58026 41.0369 7.25025 41.5394 8.11167C42.0419 8.97308 42.2811 9.93021 42.2811 11.007C42.2811 12.0837 42.0419 13.0648 41.5394 13.9262C41.0369 14.7876 40.3669 15.4576 39.4815 15.9362C38.6201 16.4148 37.663 16.654 36.6341 16.654C35.6291 16.654 34.672 16.4148 33.8106 15.9362ZM38.4048 14.2373C38.9073 13.9262 39.314 13.5194 39.6012 12.9452C39.8883 12.3948 40.0319 11.7488 40.0319 11.007C40.0319 10.2652 39.8883 9.61914 39.6012 9.0688C39.314 8.51845 38.9312 8.08774 38.4048 7.8006C37.9023 7.51346 37.3041 7.36989 36.658 7.36989C35.988 7.36989 35.4138 7.51346 34.8873 7.8006C34.3848 8.08774 33.9781 8.51845 33.6909 9.0688C33.4038 9.61914 33.2602 10.2652 33.2602 11.007C33.2602 11.7488 33.4038 12.3948 33.6909 12.9452C33.9781 13.4955 34.3848 13.9262 34.8873 14.2373C35.3898 14.5484 35.988 14.6919 36.658 14.6919C37.328 14.6919 37.9023 14.5244 38.4048 14.2373Z" fill="#212529"/>
<path d="M47.33 8.06382C47.8325 7.80061 48.4068 7.65704 49.0528 7.65704C49.7946 7.65704 50.4885 7.84847 51.0867 8.20739C51.6849 8.56632 52.1635 9.09274 52.5224 9.78665C52.8813 10.4566 53.0488 11.2463 53.0488 12.1555C53.0488 13.0648 52.8813 13.8545 52.5224 14.5244C52.1635 15.2184 51.6849 15.7448 51.0867 16.1276C50.4885 16.5105 49.7946 16.7019 49.0528 16.7019C48.4068 16.7019 47.8325 16.5583 47.3539 16.2951C46.8754 16.0319 46.4686 15.6969 46.1575 15.2901V20.7218H43.9561V7.80061H46.1575V9.06881C46.4446 8.66203 46.8275 8.32703 47.33 8.06382ZM50.4646 10.7677C50.2492 10.3849 49.9621 10.0977 49.6032 9.88237C49.2443 9.69094 48.8614 9.5713 48.4546 9.5713C48.0478 9.5713 47.6889 9.66701 47.33 9.88237C46.9711 10.0977 46.6839 10.3849 46.4686 10.7677C46.2532 11.1506 46.1336 11.6052 46.1336 12.1316C46.1336 12.658 46.2532 13.1127 46.4686 13.4955C46.6839 13.8784 46.9711 14.1894 47.33 14.3809C47.6889 14.5962 48.0478 14.6919 48.4546 14.6919C48.8614 14.6919 49.2443 14.5962 49.6032 14.3809C49.9621 14.1655 50.2492 13.8784 50.4646 13.4716C50.6799 13.0887 50.7996 12.6102 50.7996 12.0838C50.7757 11.6052 50.6799 11.1506 50.4646 10.7677Z" fill="#212529"/>
<path d="M62.7398 12.8255H56.3509C56.3988 13.4477 56.6141 13.9502 57.0209 14.3091C57.4038 14.668 57.8823 14.8355 58.4566 14.8355C59.2702 14.8355 59.8684 14.4766 60.2034 13.7827H62.5962C62.333 14.6202 61.8544 15.3141 61.1366 15.8644C60.4187 16.4148 59.5334 16.678 58.5045 16.678C57.667 16.678 56.9013 16.4866 56.2313 16.1276C55.5613 15.7448 55.0349 15.2184 54.676 14.5484C54.2931 13.8545 54.1256 13.0648 54.1256 12.1795C54.1256 11.2702 54.317 10.4806 54.676 9.78665C55.0349 9.09274 55.5613 8.56632 56.2313 8.20739C56.9013 7.84847 57.667 7.65704 58.5284 7.65704C59.3659 7.65704 60.1077 7.82454 60.7537 8.18346C61.4237 8.54239 61.9262 9.04488 62.2851 9.71487C62.6441 10.3849 62.8355 11.1266 62.8355 11.988C62.7876 12.2991 62.7637 12.5863 62.7398 12.8255ZM60.4905 11.342C60.4905 10.7677 60.2752 10.3131 59.8684 9.97808C59.4616 9.64309 58.983 9.47559 58.4088 9.47559C57.8584 9.47559 57.4038 9.64309 57.0209 9.97808C56.6381 10.3131 56.4227 10.7677 56.327 11.3659H60.4905V11.342Z" fill="#212529"/>
<path d="M71.7846 8.66203C72.4307 9.33202 72.7418 10.2413 72.7418 11.4138V16.5583H70.5404V11.7009C70.5404 11.007 70.3729 10.4806 70.014 10.0977C69.655 9.71488 69.2004 9.54738 68.6022 9.54738C67.9801 9.54738 67.5015 9.7388 67.1665 10.0977C66.8076 10.4806 66.6401 11.007 66.6401 11.7009V16.5344H64.4387V7.80062H66.6401V8.90132C66.9272 8.51846 67.3101 8.23133 67.7647 8.01597C68.2193 7.80062 68.7218 7.68098 69.2722 7.68098C70.3011 7.65705 71.1386 7.99204 71.7846 8.66203Z" fill="#212529"/>
<path d="M74.991 6.38884C74.7278 6.14956 74.6082 5.83849 74.6082 5.45564C74.6082 5.09672 74.7278 4.78565 74.991 4.52244C75.2542 4.25923 75.5653 4.13959 75.9721 4.13959C76.3549 4.13959 76.6899 4.25923 76.9531 4.52244C77.2163 4.76172 77.336 5.07279 77.336 5.45564C77.336 5.81456 77.2163 6.12563 76.9531 6.38884C76.6899 6.62812 76.3788 6.77169 75.9721 6.77169C75.5892 6.74776 75.2542 6.62812 74.991 6.38884ZM77.0728 7.8006V16.5583H74.8714V7.8006H77.0728Z" fill="#212529"/>
<path d="M86.6201 8.66203C87.2662 9.33202 87.5773 10.2413 87.5773 11.4138V16.5583H85.3759V11.7009C85.3759 11.007 85.2084 10.4806 84.8494 10.0977C84.4905 9.71488 84.0359 9.54738 83.4377 9.54738C82.8156 9.54738 82.337 9.7388 82.002 10.0977C81.6431 10.4806 81.4756 11.007 81.4756 11.7009V16.5344H79.2742V7.80062H81.4756V8.90132C81.7627 8.51846 82.1456 8.23133 82.6002 8.01597C83.0548 7.80062 83.5573 7.68098 84.1077 7.68098C85.1366 7.65705 85.9741 7.99204 86.6201 8.66203Z" fill="#212529"/>
<path d="M96.4546 14.4527H92.0518L91.334 16.5583H89.013L92.985 5.50351H95.5693L99.5414 16.5583H97.1964L96.4546 14.4527ZM95.8564 12.682L94.2532 8.06383L92.65 12.682H95.8564Z" fill="#0E6FFF"/>
<path d="M104.399 8.06382C104.901 7.80061 105.476 7.65704 106.122 7.65704C106.863 7.65704 107.557 7.84847 108.156 8.20739C108.754 8.56632 109.232 9.09274 109.591 9.78665C109.95 10.4566 110.118 11.2463 110.118 12.1555C110.118 13.0648 109.95 13.8545 109.591 14.5244C109.232 15.2184 108.754 15.7448 108.156 16.1276C107.557 16.5105 106.863 16.7019 106.122 16.7019C105.476 16.7019 104.901 16.5583 104.423 16.2951C103.944 16.0319 103.537 15.6969 103.226 15.2901V20.7218H101.025V7.80061H103.226V9.06881C103.513 8.66203 103.896 8.32703 104.399 8.06382ZM107.533 10.7677C107.318 10.3849 107.031 10.0977 106.672 9.88237C106.313 9.69094 105.93 9.5713 105.523 9.5713C105.117 9.5713 104.758 9.66701 104.399 9.88237C104.04 10.0977 103.753 10.3849 103.537 10.7677C103.322 11.1506 103.202 11.6052 103.202 12.1316C103.202 12.658 103.322 13.1127 103.537 13.4955C103.753 13.8784 104.04 14.1894 104.399 14.3809C104.758 14.5962 105.117 14.6919 105.523 14.6919C105.93 14.6919 106.313 14.5962 106.672 14.3809C107.031 14.1655 107.318 13.8784 107.533 13.4716C107.749 13.0887 107.868 12.6102 107.868 12.0838C107.844 11.6052 107.749 11.1506 107.533 10.7677Z" fill="#0E6FFF"/>
<path d="M115.119 8.06382C115.621 7.80061 116.195 7.65704 116.841 7.65704C117.583 7.65704 118.277 7.84847 118.875 8.20739C119.474 8.56632 119.952 9.09274 120.311 9.78665C120.67 10.4566 120.837 11.2463 120.837 12.1555C120.837 13.0648 120.67 13.8545 120.311 14.5244C119.952 15.2184 119.474 15.7448 118.875 16.1276C118.277 16.5105 117.583 16.7019 116.841 16.7019C116.195 16.7019 115.621 16.5583 115.143 16.2951C114.664 16.0319 114.257 15.6969 113.946 15.2901V20.7218H111.745V7.80061H113.946V9.06881C114.209 8.66203 114.616 8.32703 115.119 8.06382ZM118.229 10.7677C118.014 10.3849 117.727 10.0977 117.368 9.88237C117.009 9.69094 116.626 9.5713 116.219 9.5713C115.813 9.5713 115.454 9.66701 115.095 9.88237C114.736 10.0977 114.449 10.3849 114.233 10.7677C114.018 11.1506 113.898 11.6052 113.898 12.1316C113.898 12.658 114.018 13.1127 114.233 13.4955C114.449 13.8784 114.736 14.1894 115.095 14.3809C115.454 14.5723 115.813 14.6919 116.219 14.6919C116.626 14.6919 117.009 14.5962 117.368 14.3809C117.727 14.1655 118.014 13.8784 118.229 13.4716C118.445 13.0887 118.564 12.6102 118.564 12.0838C118.564 11.6052 118.445 11.1506 118.229 10.7677Z" fill="#0E6FFF"/>
<path d="M24.5264 4.33102C24.5264 3.97209 24.5025 3.61317 24.4786 3.27817C24.3828 2.3689 24.2153 1.50749 23.9282 0.669999C23.0907 0.430716 22.2054 0.287147 21.2961 0.239291C21.1286 0.239291 20.9611 0.215363 20.7936 0.215363C17.7308 0.215363 14.9551 1.4357 12.9212 3.42174C12.1077 3.23032 11.2941 3.1346 10.4327 3.1346C8.11166 3.1346 5.95812 3.82852 4.16351 5.02493C3.42173 5.52743 2.72781 6.1017 2.12961 6.74777C2.32103 7.63311 2.60817 8.4706 2.99102 9.26023C4.37886 12.1316 6.93918 14.3091 10.0498 15.2184C11.0309 18.0897 13.1127 20.4347 15.8165 21.7268C16.5822 22.1097 17.4197 22.3968 18.2812 22.5882C18.9033 21.99 19.4776 21.2961 19.9561 20.5543C21.0808 18.7837 21.7507 16.7019 21.7507 14.4527C21.7507 13.6152 21.655 12.8016 21.4875 12.0359C23.3779 10.0259 24.5264 7.29811 24.5264 4.33102ZM9.45164 11.5573C9.45164 11.9163 9.47557 12.2752 9.4995 12.6102C7.27417 11.6052 5.52741 9.76272 4.666 7.44168C6.22133 6.17349 8.2313 5.38386 10.4088 5.38386C10.6959 5.38386 10.9591 5.40779 11.2463 5.43171C10.1216 7.2024 9.45164 9.30808 9.45164 11.5573ZM11.8923 13.3041C11.7727 12.7298 11.7248 12.1555 11.7248 11.5573C11.7248 9.45165 12.4427 7.5374 13.6391 6.00599C16.1037 6.93919 18.0419 8.9013 18.9272 11.3659C17.3719 12.6341 15.3619 13.4237 13.1844 13.4237C12.7537 13.3759 12.323 13.352 11.8923 13.3041ZM17.5633 20.0279C15.4337 19.2144 13.7109 17.659 12.682 15.6491C12.8494 15.6491 13.0169 15.673 13.1844 15.673C15.5055 15.673 17.659 14.9791 19.4536 13.7827C19.4776 14.0219 19.4776 14.2373 19.4776 14.4766C19.4776 16.5583 18.7836 18.4726 17.5633 20.0279ZM15.3858 4.28316C16.8933 3.15853 18.7597 2.48854 20.7936 2.48854C21.2483 2.48854 21.679 2.51247 22.0857 2.58426C22.2054 3.15853 22.2532 3.73281 22.2532 4.33102C22.2532 6.2692 21.655 8.06382 20.6022 9.52344C19.5015 7.25026 17.659 5.38386 15.3858 4.28316Z" fill="#0E6FFF"/>
<path d="M10.4327 17.8744C10.4327 17.8744 10.337 16.9173 9.30806 15.9362C8.27915 14.9551 7.32202 14.8834 7.32202 14.8834C0.646048 13.6391 1.77067 23.7368 1.77067 23.7368C1.77067 23.7368 11.8923 24.5025 10.4327 17.8744ZM3.92421 21.4875C3.92421 21.4875 3.75672 16.7498 6.86738 17.0847C6.86738 17.0847 7.32202 17.0847 7.77666 17.5155C8.23129 17.9462 8.23129 18.4008 8.23129 18.4008C8.662 21.4875 3.92421 21.4875 3.92421 21.4875Z" fill="#0E6FFF"/>
</svg>
